<?xml version="1.0" encoding="UTF-8" standalone="no"?>
<!-- Generator: Tilo Wuetherich, Landesarchiv Baden-Wuerttemberg SVG
  Version: 6.00 Build 51448 -->

<svg
   xmlns:dc="http://purl.org/dc/elements/1.1/"
   xmlns:cc="http://creativecommons.org/ns#"
   xmlns:rdf="http://www.w3.org/1999/02/22-rdf-syntax-ns#"
   xmlns:svg="http://www.w3.org/2000/svg"
   xmlns="http://www.w3.org/2000/svg"
   xmlns:sodipodi="http://sodipodi.sourceforge.net/DTD/sodipodi-0.dtd"
   xmlns:inkscape="http://www.inkscape.org/namespaces/inkscape"
   version="1.1"
   id="Ebene_1"
   width="20"
   height="20"
   viewBox="0 0 20 20"
   overflow="visible"
   enable-background="new 0 0 20 20"
   xml:space="preserve"
   inkscape:version="0.48.2 r9819"
   sodipodi:docname="port.svg"
   inkscape:export-filename="/Users/jody/Library/Containers/com.boundlessgeo.geoserver/Data/Library/Application Support/GeoServer/data_dir/styles/port.png"
   inkscape:export-xdpi="90"
   inkscape:export-ydpi="90"><metadata
   id="metadata13"><rdf:RDF><cc:Work
       rdf:about=""><dc:format>image/svg+xml</dc:format><dc:type
         rdf:resource="http://purl.org/dc/dcmitype/StillImage" /><dc:title /></cc:Work></rdf:RDF></metadata><defs
   id="defs11"><inkscape:perspective
     sodipodi:type="inkscape:persp3d"
     inkscape:vp_x="0 : 10 : 1"
     inkscape:vp_y="0 : 1000 : 0"
     inkscape:vp_z="20 : 10 : 1"
     inkscape:persp3d-origin="10 : 6.6666667 : 1"
     id="perspective15" /></defs><sodipodi:namedview
   pagecolor="#ffffff"
   bordercolor="#666666"
   borderopacity="1"
   objecttolerance="10"
   gridtolerance="10"
   guidetolerance="10"
   inkscape:pageopacity="0"
   inkscape:pageshadow="2"
   inkscape:window-width="1209"
   inkscape:window-height="856"
   id="namedview9"
   showgrid="true"
   inkscape:zoom="32"
   inkscape:cx="11.346417"
   inkscape:cy="10.719982"
   inkscape:window-x="92"
   inkscape:window-y="104"
   inkscape:window-maximized="0"
   inkscape:current-layer="Ebene_1"
   showguides="false"><inkscape:grid
     type="xygrid"
     id="grid2814"
     empspacing="5"
     visible="true"
     enabled="true"
     snapvisiblegridlinesonly="true"
     originx="0.5px"
     originy="0.5px" /></sodipodi:namedview>
  
  
  
<path
   style="color:#000000;fill:#000045;fill-opacity:1;stroke:none;stroke-width:0.5;marker:none;visibility:visible;display:inline;overflow:visible;enable-background:accumulate"
   d="m 9.5,0.5 c -2,0 -2.496005,1.0667604 -2.5,2 -0.00655,1.53125 1.5,2 1.5,2 l 0,1 -4,0 0,1 4,0 0,8 c -3,0 -5,-2 -5,-2 l 1,-0.5625 C 2.90625,11.5 1.5,10.5 1.5,10.5 l 0.59375,3 L 2.5,13.0625 c 0,0 2.9999695,3.42187 7,3.4375 4.000031,0.01563 7,-3.40625 7,-3.40625 L 17.0625,13.5 17.5,10.5 c 0,0 -1.46875,1 -3,1.375 l 1,0.625 c 0,0 -2,2 -5,2 l 0,-8 4,0 0,-1 -4,0 0,-1 c 0,0 1.51553,-0.375 1.53125,-2 C 12.040502,1.5436294 11.5,0.5 9.5,0.5 z m 0,1 c 0.552285,0 1,0.4477153 1,1 0,0.5522847 -0.447715,1 -1,1 -0.5522847,0 -1,-0.4477153 -1,-1 0,-0.5522847 0.4477153,-1 1,-1 z"
   id="rect2816"
   inkscape:connector-curvature="0"
   sodipodi:nodetypes="sscccccccccccscccccccccccsssssss" /></svg>