<?xml version="1.0" encoding="UTF-8"?>
<svg width="300px" height="50px" viewBox="0 0 300 50" version="1.1" xmlns="http://www.w3.org/2000/svg" xmlns:xlink="http://www.w3.org/1999/xlink">
    <!-- Generator: Sketch 57.1 (83088) - https://sketch.com -->
    <title>Horizontal/Titles-Logo/GeoServer</title>
    <desc>Created with Sketch.</desc>
    <g id="Horizontal/Titles-Logo/GeoServer" stroke="none" stroke-width="1" fill="none" fill-rule="evenodd">
        <g id="Logo/GeoServer/Colour">
            <g id="gc_geoserver_logo">
                <circle id="Background" fill="#00AD9F" cx="25" cy="25" r="25"></circle>
                <path d="M24.75,9.83333333 C25.66628,9.83333333 26.5630206,10.1920296 27.4297871,10.8854428 C27.4483451,10.9002892 27.4660672,10.9161512 27.4828722,10.9329562 L38.9120569,22.3621409 C38.9302173,22.3803013 38.9472753,22.3995316 38.9631397,22.4197287 C39.6335303,23.2732143 39.9767799,24.1563592 39.9695562,25.0580383 C39.9621341,25.9557709 39.6075649,26.8454446 38.9286584,27.7197262 C38.9121743,27.7409541 38.8943778,27.7611295 38.8753732,27.7801341 L27.49317,39.1623373 C27.4760618,39.1794454 27.4580034,39.1955761 27.4390805,39.2106526 C26.5703938,39.9027638 25.6726554,40.2642838 24.7555838,40.2723676 C23.8342154,40.2802209 22.9433831,39.9307879 22.0969645,39.2473462 C22.0792307,39.233027 22.0622694,39.2177767 22.0461523,39.2016596 L11.6666667,29.4694623 C11.6443642,29.4471598 11.6158916,29.4103934 11.5826937,29.3617279 C10.7107913,28.5393441 10.1666667,27.373599 10.1666667,26.0808315 C10.1666667,23.5908088 12.1851474,21.5721014 14.6751701,21.5721014 L32.2435374,21.5748224 C32.2800454,21.5735753 32.3258503,21.5748224 32.3626984,21.5748224 C34.2794785,21.5748224 35.830839,23.1262964 35.830839,25.042963 C35.830839,26.9597431 34.2794785,28.5111036 32.3626984,28.5111036 L19.8773243,28.5111036 C19.4943311,28.5111036 19.1837868,28.2006728 19.1837868,27.8175662 C19.1837868,27.4344596 19.4943311,27.1239154 19.8773243,27.1239154 L32.3628118,27.1239154 C33.5131519,27.1239154 34.4437642,26.1937567 34.4437642,25.0433032 C34.4437642,23.8928497 33.5075964,22.9622374 32.3571429,22.9622374 L14.6787982,22.9600832 C12.9539683,22.9600832 11.556576,24.3575889 11.556576,26.081285 C11.556576,27.230567 12.5961073,28.7332881 14.6751701,30.5894485 L14.6568333,30.5891667 L22.9321705,38.265763 C23.5280487,38.7402839 24.107599,38.9728522 24.6828033,38.9836812 L24.7444162,38.9839938 C25.3439186,38.9787969 25.9622142,38.7331317 26.6086169,38.2249755 L37.9351086,26.8984839 C38.4350429,26.245336 38.6764491,25.6306907 38.6811953,25.047553 C38.6859107,24.4682156 38.457314,23.8709128 37.9730291,23.2450278 L26.5978612,11.86986 C25.9562368,11.3633699 25.3436183,11.1216216 24.75,11.1216216 C24.1563817,11.1216216 23.5437632,11.3633699 22.9021388,11.86986 L17.8039499,16.9680488 C17.552396,17.2196028 17.1445465,17.2196028 16.8929926,16.9680488 C16.6414386,16.7164949 16.6414386,16.3086454 16.8929926,16.0570915 L22.0171278,10.9329562 C22.0339328,10.9161512 22.0516549,10.9002892 22.0702129,10.8854428 C22.9369794,10.1920296 23.83372,9.83333333 24.75,9.83333333 Z" id="Path" fill="#FFFFFF" fill-rule="nonzero"></path>
            </g>
        </g>
    </g>
</svg>