<?xml version="1.0" encoding="UTF-8"?>
<svg width="300px" height="50px" viewBox="0 0 300 50" version="1.1" xmlns="http://www.w3.org/2000/svg" xmlns:xlink="http://www.w3.org/1999/xlink">
    <!-- Generator: Sketch 57.1 (83088) - https://sketch.com -->
    <title>Horizontal/Titles-Logo/GeoServer</title>
    <desc>Created with Sketch.</desc>
    <g id="Horizontal/Titles-Logo/GeoServer" stroke="none" stroke-width="1" fill="none" fill-rule="evenodd">
        <g id="Logo/GeoServer/Colour">
            <g id="gc_geoserver_logo">
                <circle id="Background" fill="#00AD9F" cx="25" cy="25" r="25"></circle>
                <path d="M24.75,9.83333333 C25.66628,9.83333333 26.5630206,10.1920296 27.4297871,10.8854428 C27.4483451,10.9002892 27.4660672,10.9161512 27.4828722,10.9329562 L38.9120569,22.3621409 C38.9302173,22.3803013 38.9472753,22.3995316 38.9631397,22.4197287 C39.6335303,23.2732143 39.9767799,24.1563592 39.9695562,25.0580383 C39.9621341,25.9557709 39.6075649,26.8454446 38.9286584,27.7197262 C38.9121743,27.7409541 38.8943778,27.7611295 38.8753732,27.7801341 L27.49317,39.1623373 C27.4760618,39.1794454 27.4580034,39.1955761 27.4390805,39.2106526 C26.5703938,39.9027638 25.6726554,40.2642838 24.7555838,40.2723676 C23.8342154,40.2802209 22.9433831,39.9307879 22.0969645,39.2473462 C22.0792307,39.233027 22.0622694,39.2177767 22.0461523,39.2016596 L11.6666667,29.4694623 C11.6443642,29.4471598 11.6158916,29.4103934 11.5826937,29.3617279 C10.7107913,28.5393441 10.1666667,27.373599 10.1666667,26.0808315 C10.1666667,23.5908088 12.1851474,21.5721014 14.6751701,21.5721014 L32.2435374,21.5748224 C32.2800454,21.5735753 32.3258503,21.5748224 32.3626984,21.5748224 C34.2794785,21.5748224 35.830839,23.1262964 35.830839,25.042963 C35.830839,26.9597431 34.2794785,28.5111036 32.3626984,28.5111036 L19.8773243,28.5111036 C19.4943311,28.5111036 19.1837868,28.2006728 19.1837868,27.8175662 C19.1837868,27.4344596 19.4943311,27.1239154 19.8773243,27.1239154 L32.3628118,27.1239154 C33.5131519,27.1239154 34.4437642,26.1937567 34.4437642,25.0433032 C34.4437642,23.8928497 33.5075964,22.9622374 32.3571429,22.9622374 L14.6787982,22.9600832 C12.9539683,22.9600832 11.556576,24.3575889 11.556576,26.081285 C11.556576,27.230567 12.5961073,28.7332881 14.6751701,30.5894485 L14.6568333,30.5891667 L22.9321705,38.265763 C23.5280487,38.7402839 24.107599,38.9728522 24.6828033,38.9836812 L24.7444162,38.9839938 C25.3439186,38.9787969 25.9622142,38.7331317 26.6086169,38.2249755 L37.9351086,26.8984839 C38.4350429,26.245336 38.6764491,25.6306907 38.6811953,25.047553 C38.6859107,24.4682156 38.457314,23.8709128 37.9730291,23.2450278 L26.5978612,11.86986 C25.9562368,11.3633699 25.3436183,11.1216216 24.75,11.1216216 C24.1563817,11.1216216 23.5437632,11.3633699 22.9021388,11.86986 L17.8039499,16.9680488 C17.552396,17.2196028 17.1445465,17.2196028 16.8929926,16.9680488 C16.6414386,16.7164949 16.6414386,16.3086454 16.8929926,16.0570915 L22.0171278,10.9329562 C22.0339328,10.9161512 22.0516549,10.9002892 22.0702129,10.8854428 C22.9369794,10.1920296 23.83372,9.83333333 24.75,9.83333333 Z" id="Path" fill="#FFFFFF" fill-rule="nonzero"></path>
            </g>
        </g>
        <g id="Horizontal/Titles/GeoServer" transform="translate(56.959340, 0.000000)">
            <g transform="translate(0.000000, 4.000000)" id="Titles/Enterprise">
                <g fill-rule="nonzero">
                    <path d="M7.41205764,36.3587896 L7.41205764,38.3242075 L3.4812219,38.3242075 L3.4812219,40.8602305 L7.87171182,40.8602305 L7.87171182,42.8414986 L1.072,42.8414986 L1.072,32.1585014 L7.6498098,32.1585014 L7.6498098,34.1397695 L3.4812219,34.1397695 L3.4812219,36.3587896 L7.41205764,36.3587896 Z M11.739147,42.8414986 L9.5201268,42.8414986 L9.5201268,32.1585014 L12.3414524,32.1585014 L14.5604726,36.073487 C15.1944784,37.1988473 15.812634,38.5302594 16.3039885,39.7348703 L16.3356888,39.7348703 C16.1930375,38.3242075 16.145487,36.8818444 16.145487,35.2651297 L16.145487,32.1585014 L18.3645072,32.1585014 L18.3645072,42.8414986 L15.8284841,42.8414986 L13.5460634,38.7204611 C12.9120576,37.5792507 12.1988012,36.2002882 11.6915965,34.9481268 L11.628196,34.9481268 C11.7074467,36.3746398 11.739147,37.8804035 11.739147,39.6239193 L11.739147,42.8414986 Z M22.5330951,42.8414986 L22.5330951,34.1873199 L19.6483689,34.1873199 L19.6483689,32.1585014 L27.8587435,32.1585014 L27.8587435,34.1873199 L24.942317,34.1873199 L24.942317,42.8414986 L22.5330951,42.8414986 Z M35.498513,36.3587896 L35.498513,38.3242075 L31.5676772,38.3242075 L31.5676772,40.8602305 L35.9581671,40.8602305 L35.9581671,42.8414986 L29.1584553,42.8414986 L29.1584553,32.1585014 L35.7362651,32.1585014 L35.7362651,34.1397695 L31.5676772,34.1397695 L31.5676772,36.3587896 L35.498513,36.3587896 Z M37.6065821,42.8414986 L37.6065821,32.3011527 C38.3832392,32.1743516 39.5244496,32.0792507 40.8241614,32.0792507 C42.4091758,32.0792507 43.5186859,32.3170029 44.2794928,32.9193084 C44.9293487,33.426513 45.2780519,34.1873199 45.2780519,35.1700288 C45.2780519,36.5172911 44.3111931,37.4524496 43.3918847,37.7853026 L43.3918847,37.832853 C44.1368415,38.1340058 44.5489452,38.8314121 44.8183977,39.814121 C45.1512507,41.0345821 45.4682536,42.4293948 45.6743055,42.8414986 L43.201683,42.8414986 C43.0431816,42.5244957 42.7737291,41.6685879 42.4725764,40.3530259 C42.1714236,39.0057637 41.7117695,38.6570605 40.7132104,38.6412104 L39.9999539,38.6412104 L39.9999539,42.8414986 L37.6065821,42.8414986 Z M39.9999539,33.9654179 L39.9999539,36.8976945 L40.9509625,36.8976945 C42.1555735,36.8976945 42.86883,36.295389 42.86883,35.3602305 C42.86883,34.3933718 42.2031239,33.8861671 41.0936138,33.8861671 C40.5071585,33.8861671 40.1743055,33.9178674 39.9999539,33.9654179 Z M47.0057176,42.8414986 L47.0057176,32.3011527 C47.7506744,32.1743516 48.7967839,32.0792507 50.2708473,32.0792507 C51.7607608,32.0792507 52.8227205,32.3645533 53.5359769,32.9351585 C54.2333833,33.4740634 54.6771873,34.3616715 54.6771873,35.407781 C54.6771873,36.4538905 54.3443343,37.3573487 53.6944784,37.943804 C52.8702709,38.704611 51.6498098,39.0691643 50.2232968,39.0691643 C49.9062939,39.0691643 49.6209914,39.0533141 49.3990893,39.0057637 L49.3990893,42.8414986 L47.0057176,42.8414986 Z M49.3990893,33.9971182 L49.3990893,37.1512968 C49.6051412,37.1988473 49.8428934,37.2146974 50.2074467,37.2146974 C51.4913084,37.2146974 52.2838156,36.5648415 52.2838156,35.4870317 C52.2838156,34.5043228 51.6022594,33.9178674 50.3817983,33.9178674 C49.9062939,33.9178674 49.5734409,33.9495677 49.3990893,33.9971182 Z M56.2146513,42.8414986 L56.2146513,32.3011527 C56.9913084,32.1743516 58.1325187,32.0792507 59.4322305,32.0792507 C61.017245,32.0792507 62.126755,32.3170029 62.887562,32.9193084 C63.5374179,33.426513 63.886121,34.1873199 63.886121,35.1700288 C63.886121,36.5172911 62.9192622,37.4524496 61.9999539,37.7853026 L61.9999539,37.832853 C62.7449107,38.1340058 63.1570144,38.8314121 63.4264669,39.814121 C63.7593199,41.0345821 64.0763228,42.4293948 64.2823746,42.8414986 L61.8097522,42.8414986 C61.6512507,42.5244957 61.3817983,41.6685879 61.0806455,40.3530259 C60.7794928,39.0057637 60.3198386,38.6570605 59.3212795,38.6412104 L58.6080231,38.6412104 L58.6080231,42.8414986 L56.2146513,42.8414986 Z M58.6080231,33.9654179 L58.6080231,36.8976945 L59.5590317,36.8976945 C60.7636427,36.8976945 61.4768991,36.295389 61.4768991,35.3602305 C61.4768991,34.3933718 60.8111931,33.8861671 59.701683,33.8861671 C59.1152277,33.8861671 58.7823746,33.9178674 58.6080231,33.9654179 Z M65.6296369,32.1585014 L68.0388588,32.1585014 L68.0388588,42.8414986 L65.6296369,42.8414986 L65.6296369,32.1585014 Z M69.7189741,42.3342939 L70.2103285,40.3530259 C70.8443343,40.685879 71.8587435,41.018732 72.8890029,41.018732 C73.998513,41.018732 74.5849683,40.5590778 74.5849683,39.8616715 C74.5849683,39.1959654 74.0777637,38.815562 72.793902,38.3717579 C71.0186859,37.7377522 69.8457752,36.7550432 69.8457752,35.2017291 C69.8457752,33.3789625 71.3832392,32 73.887562,32 C75.1080231,32 75.979781,32.2377522 76.6137867,32.5389049 L76.0748818,34.4726225 C75.6627781,34.2665706 74.886121,33.9654179 73.8558617,33.9654179 C72.8097522,33.9654179 72.3025476,34.4567723 72.3025476,34.9956772 C72.3025476,35.6772334 72.8890029,35.9783862 74.2838156,36.5014409 C76.1699827,37.1988473 77.0417406,38.1815562 77.0417406,39.6873199 C77.0417406,41.4783862 75.6786282,43 72.7463516,43 C71.5258905,43 70.3212795,42.667147 69.7189741,42.3342939 Z M85.0460634,36.3587896 L85.0460634,38.3242075 L81.1152277,38.3242075 L81.1152277,40.8602305 L85.5057176,40.8602305 L85.5057176,42.8414986 L78.7060058,42.8414986 L78.7060058,32.1585014 L85.2838156,32.1585014 L85.2838156,34.1397695 L81.1152277,34.1397695 L81.1152277,36.3587896 L85.0460634,36.3587896 Z" id="ENTERPRISE" fill="#07002D"></path>
                    <path d="M18.748924,9.46915352 L18.748924,20.6743185 C17.2654232,21.17934 14.456241,21.8737446 11.6470588,21.8737446 C7.76470588,21.8737446 4.95552367,20.8952654 2.99856528,19.0329986 C1.07317073,17.1707317 2.13162821e-14,14.3931133 2.13162821e-14,11.2682927 C0.0315638451,4.19799139 5.17647059,0.157819225 12.1520803,0.157819225 C14.8981349,0.157819225 17.0129125,0.694404591 18.0545194,1.16786227 L17.0444763,5.05021521 C15.8766141,4.51362984 14.456241,4.1348637 12.1205165,4.1348637 C8.11190818,4.1348637 5.05021521,6.3758967 5.05021521,11.0157819 C5.05021521,15.4347202 7.82783357,17.9913917 11.7733142,17.9913917 C12.8464849,17.9913917 13.7302726,17.8651363 14.1090387,17.7073171 L14.1090387,13.2252511 L10.8263989,13.2252511 L10.8263989,9.46915352 L18.748924,9.46915352 Z M34.5703013,8.74318508 L34.5703013,12.6571019 L26.7424677,12.6571019 L26.7424677,17.7073171 L35.4856528,17.7073171 L35.4856528,21.6527977 L21.9447632,21.6527977 L21.9447632,0.378766141 L35.0437589,0.378766141 L35.0437589,4.32424677 L26.7424677,4.32424677 L26.7424677,8.74318508 L34.5703013,8.74318508 Z M47.5509325,0 C54.0846484,0 57.6513629,4.89239598 57.6513629,10.794835 C57.6513629,17.8020086 53.4533715,22 47.2037302,22 C40.9225251,22 37.1979913,17.2338594 37.1979913,11.1420373 C37.1979913,4.7661406 41.3012912,0 47.5509325,0 Z M47.456241,3.81922525 C44.1736011,3.81922525 42.2797704,6.91248207 42.2797704,11.0473458 C42.2797704,15.2453372 44.2367288,18.1807747 47.456241,18.1807747 C50.707317,18.1807747 52.5695839,15.0875179 52.5695839,10.9526542 C52.5695839,7.10186514 50.7704447,3.81922525 47.456241,3.81922525 Z M59.3952654,20.6427547 L60.3737445,16.697274 C61.6362984,17.3601148 63.6563844,18.0229555 65.7080344,18.0229555 C67.9175035,18.0229555 69.0853658,17.107604 69.0853658,15.7187948 C69.0853658,14.3931133 68.0753227,13.6355811 65.5186513,12.7517934 C61.9835006,11.4892396 59.6477761,9.53228121 59.6477761,6.43902439 C59.6477761,2.80918221 62.7094691,0.0631276901 67.6965566,0.0631276901 C70.1269727,0.0631276901 71.8629841,0.536585366 73.1255379,1.13629842 L72.0523672,4.98708752 C71.2317072,4.57675753 69.6850788,3.97704448 67.6334289,3.97704448 C65.5502151,3.97704448 64.5401721,4.95552367 64.5401721,6.0286944 C64.5401721,7.38593974 65.7080344,7.9856528 68.4856527,9.02725968 C72.2417503,10.4160689 73.9777618,12.3730273 73.9777618,15.3715925 C73.9777618,18.938307 71.2632711,21.9684362 65.4239598,21.9684362 C62.9935437,21.9684362 60.5946915,21.3055954 59.3952654,20.6427547 Z M89.3256814,8.74318508 L89.3256814,12.6571019 L81.4978478,12.6571019 L81.4978478,17.7073171 L90.2410329,17.7073171 L90.2410329,21.6527977 L76.7001434,21.6527977 L76.7001434,0.378766141 L89.7991391,0.378766141 L89.7991391,4.32424677 L81.4978478,4.32424677 L81.4978478,8.74318508 L89.3256814,8.74318508 Z M92.9318507,21.6527977 L92.9318507,0.662840746 C94.4784791,0.410329986 96.7510759,0.220946915 99.3393112,0.220946915 C102.495696,0.220946915 104.705165,0.694404591 106.220229,1.8938307 C107.514347,2.90387374 108.208752,4.41893831 108.208752,6.3758967 C108.208752,9.05882353 106.283357,10.9210904 104.452654,11.5839311 L104.452654,11.6786227 C105.936155,12.2783357 106.756815,13.6671449 107.2934,15.6241033 C107.956241,18.0545194 108.587518,20.8321377 108.997848,21.6527977 L104.073888,21.6527977 C103.75825,21.0215208 103.221664,19.3170732 102.621951,16.697274 C102.022238,14.0143472 101.106887,13.3199426 99.1183643,13.2883788 L97.6979913,13.2883788 L97.6979913,21.6527977 L92.9318507,21.6527977 Z M97.6979913,3.97704448 L97.6979913,9.81635581 L99.591822,9.81635581 C101.990674,9.81635581 103.411047,8.6169297 103.411047,6.75466284 C103.411047,4.82926829 102.085366,3.81922525 99.8758966,3.81922525 C98.7080343,3.81922525 98.0451936,3.88235294 97.6979913,3.97704448 Z M121.505021,21.6527977 L115.886657,21.6527977 L109.068866,0.378766141 L114.340029,0.378766141 L116.928264,9.37446198 C117.654232,11.9311334 118.317073,14.3299857 118.822095,16.9813486 L118.916786,16.9813486 C119.453371,14.4246772 120.116212,11.8995696 120.842181,9.46915352 L123.556671,0.378766141 L128.670014,0.378766141 L121.505021,21.6527977 Z M143.007891,8.74318508 L143.007891,12.6571019 L135.180057,12.6571019 L135.180057,17.7073171 L143.923242,17.7073171 L143.923242,21.6527977 L130.382353,21.6527977 L130.382353,0.378766141 L143.481348,0.378766141 L143.481348,4.32424677 L135.180057,4.32424677 L135.180057,8.74318508 L143.007891,8.74318508 Z M146.61406,21.6527977 L146.61406,0.662840746 C148.160688,0.410329986 150.433285,0.220946915 153.021521,0.220946915 C156.177905,0.220946915 158.387374,0.694404591 159.902439,1.8938307 C161.196556,2.90387374 161.890961,4.41893831 161.890961,6.3758967 C161.890961,9.05882353 159.965567,10.9210904 158.134864,11.5839311 L158.134864,11.6786227 C159.618364,12.2783357 160.439024,13.6671449 160.97561,15.6241033 C161.63845,18.0545194 162.269727,20.8321377 162.680057,21.6527977 L157.756097,21.6527977 C157.440459,21.0215208 156.903874,19.3170732 156.304161,16.697274 C155.704447,14.0143472 154.789096,13.3199426 152.800574,13.2883788 L151.380201,13.2883788 L151.380201,21.6527977 L146.61406,21.6527977 Z M151.380201,3.97704448 L151.380201,9.81635581 L153.274031,9.81635581 C155.672884,9.81635581 157.093257,8.6169297 157.093257,6.75466284 C157.093257,4.82926829 155.767575,3.81922525 153.558106,3.81922525 C152.390244,3.81922525 151.727403,3.88235294 151.380201,3.97704448 Z" id="GEOSERVER" fill="#00AD9F"></path>
                </g>
            </g>
        </g>
    </g>
</svg>