<?xml version="1.0" encoding="UTF-8"?>
<svg width="38px" height="38px" viewBox="0 0 38 38" version="1.1" xmlns="http://www.w3.org/2000/svg" xmlns:xlink="http://www.w3.org/1999/xlink">
    <title>source_vector</title>
    <g id="source_vector" stroke="none" stroke-width="1" fill="none" fill-rule="evenodd">
        <g id="ic_crop_din_24px" fill="#2B2B2B" fill-rule="nonzero">
            <path d="M32,0 L4,0 C1.8,0 0,1.8 0,4 L0,32 C0,34.2 1.8,36 4,36 L32,36 C34.2,36 36,34.2 36,32 L36,4 C36,1.8 34.2,0 32,0 Z M32,32 L4,32 L4,4 L32,4 L32,32 Z" id="Shape"></path>
        </g>
        <g id="Overlay" transform="translate(13.000000, 13.000000)">
            <rect id="Box" stroke="#2B2B2B" stroke-width="2" fill="#FFFFFF" x="0" y="0" width="24" height="24" rx="3"></rect>
            <g id="ic_streetview_24px" transform="translate(3.000000, 3.000000)" fill="#2B2B2B" fill-rule="nonzero">
                <path d="M8.604,11.997 C8.298,12.24 8.1,12.627 8.1,13.05 L8.1,18 L14.4,18 C15.39,18 16.2,17.19 16.2,16.2 L16.2,10.818 C15.354,10.521 14.445,10.35 13.5,10.35 C11.673,10.35 9.963,10.98 8.604,11.997 Z" id="Path"></path>
                <circle id="Oval" cx="13.5" cy="4.5" r="4.5"></circle>
                <path d="M7.65,4.5 C7.65,3.528 7.893,2.61 8.316,1.8 L1.8,1.8 C0.81,1.8 0,2.61 0,3.6 L0,16.2 C0,16.695 0.207,17.145 0.531,17.469 L9.369,8.631 C8.307,7.578 7.65,6.12 7.65,4.5 Z" id="Path"></path>
            </g>
        </g>
    </g>
</svg>