<?xml version="1.0" encoding="UTF-8"?>
<svg width="38px" height="38px" viewBox="0 0 38 38" version="1.1" xmlns="http://www.w3.org/2000/svg" xmlns:xlink="http://www.w3.org/1999/xlink">
    <title>source_raster</title>
    <g id="source_raster" stroke="none" stroke-width="1" fill="none" fill-rule="evenodd">
        <g id="ic_crop_din_24px" fill="#2B2B2B" fill-rule="nonzero">
            <path d="M32,0 L4,0 C1.8,0 0,1.8 0,4 L0,32 C0,34.2 1.8,36 4,36 L32,36 C34.2,36 36,34.2 36,32 L36,4 C36,1.8 34.2,0 32,0 Z M32,32 L4,32 L4,4 L32,4 L32,32 Z" id="Shape"></path>
        </g>
        <g id="Overlay" transform="translate(13.000000, 13.000000)">
            <rect id="Box" stroke="#2B2B2B" stroke-width="2" fill="#FFFFFF" x="0" y="0" width="24" height="24" rx="3"></rect>
            <g id="ic_grid_on_24px" transform="translate(3.000000, 3.000000)" fill="#2B2B2B" fill-rule="nonzero">
                <path d="M16.2,0 L1.8,0 C0.81,0 0,0.81 0,1.8 L0,16.2 C0,17.19 0.81,18 1.8,18 L16.2,18 C17.19,18 18,17.19 18,16.2 L18,1.8 C18,0.81 17.19,0 16.2,0 Z M5.4,16.2 L1.8,16.2 L1.8,12.6 L5.4,12.6 L5.4,16.2 Z M5.4,10.8 L1.8,10.8 L1.8,7.2 L5.4,7.2 L5.4,10.8 Z M5.4,5.4 L1.8,5.4 L1.8,1.8 L5.4,1.8 L5.4,5.4 Z M10.8,16.2 L7.2,16.2 L7.2,12.6 L10.8,12.6 L10.8,16.2 Z M10.8,10.8 L7.2,10.8 L7.2,7.2 L10.8,7.2 L10.8,10.8 Z M10.8,5.4 L7.2,5.4 L7.2,1.8 L10.8,1.8 L10.8,5.4 Z M16.2,16.2 L12.6,16.2 L12.6,12.6 L16.2,12.6 L16.2,16.2 Z M16.2,10.8 L12.6,10.8 L12.6,7.2 L16.2,7.2 L16.2,10.8 Z M16.2,5.4 L12.6,5.4 L12.6,1.8 L16.2,1.8 L16.2,5.4 Z" id="Shape"></path>
            </g>
        </g>
    </g>
</svg>